<svg width="250" height="250" viewBox="0 0 250 250" fill="none" xmlns="http://www.w3.org/2000/svg">
<path opacity="0.9" d="M125 50L156.25 87.5L125 125L93.75 87.5L125 50Z" fill="white"/>
<path opacity="0.7" d="M75 68.75C91.6667 64.5833 108.333 58.3333 125 50C141.667 58.3333 158.333 64.5833 175 68.75" stroke="white" stroke-width="3.75"/>
<path opacity="0.7" d="M75 106.25C91.6667 110.417 108.333 116.667 125 125C141.667 116.667 158.333 110.417 175 106.25" stroke="white" stroke-width="3.75"/>
<path opacity="0.8" d="M81.25 92.5C84.0114 92.5 86.25 90.2614 86.25 87.5C86.25 84.7386 84.0114 82.5 81.25 82.5C78.4886 82.5 76.25 84.7386 76.25 87.5C76.25 90.2614 78.4886 92.5 81.25 92.5Z" fill="white"/>
<path opacity="0.8" d="M168.75 92.5C171.511 92.5 173.75 90.2614 173.75 87.5C173.75 84.7386 171.511 82.5 168.75 82.5C165.989 82.5 163.75 84.7386 163.75 87.5C163.75 90.2614 165.989 92.5 168.75 92.5Z" fill="white"/>
<path opacity="0.5" d="M87.5 56.25C92.6569 59.6707 96.8871 64.3144 99.8134 69.767C102.74 75.2197 104.271 81.3117 104.271 87.5C104.271 93.6883 102.74 99.7803 99.8134 105.233C96.8871 110.686 92.6569 115.329 87.5 118.75" stroke="white" stroke-width="2.5"/>
<path opacity="0.5" d="M162.5 56.25C157.343 59.6707 153.113 64.3144 150.187 69.767C147.26 75.2197 145.729 81.3117 145.729 87.5C145.729 93.6883 147.26 99.7803 150.187 105.233C153.113 110.686 157.343 115.329 162.5 118.75" stroke="white" stroke-width="2.5"/>
<path d="M112.853 127.773H116.816V151.168C116.816 153.256 116.432 155.029 115.665 156.489C114.898 157.949 113.817 159.056 112.421 159.813C111.026 160.569 109.38 160.947 107.483 160.947C105.694 160.947 104.101 160.623 102.705 159.973C101.31 159.312 100.213 158.375 99.4135 157.16C98.6145 155.946 98.215 154.502 98.215 152.83H102.114C102.114 153.756 102.343 154.566 102.801 155.259C103.27 155.94 103.909 156.473 104.719 156.857C105.529 157.24 106.45 157.432 107.483 157.432C108.623 157.432 109.593 157.192 110.392 156.713C111.191 156.233 111.798 155.53 112.214 154.603C112.64 153.666 112.853 152.521 112.853 151.168V127.773ZM134.857 160.5H124.758V127.773H135.305C138.48 127.773 141.196 128.428 143.455 129.738C145.713 131.038 147.444 132.908 148.648 135.347C149.852 137.776 150.454 140.685 150.454 144.072C150.454 147.482 149.847 150.417 148.632 152.877C147.418 155.328 145.649 157.213 143.327 158.534C141.004 159.845 138.181 160.5 134.857 160.5ZM128.721 156.984H134.602C137.308 156.984 139.55 156.462 141.329 155.418C143.108 154.374 144.435 152.888 145.308 150.96C146.182 149.032 146.619 146.736 146.619 144.072C146.619 141.43 146.187 139.156 145.324 137.249C144.461 135.331 143.172 133.861 141.457 132.838C139.742 131.805 137.606 131.288 135.049 131.288H128.721V156.984Z" fill="white"/>
<path d="M83.1674 196.955H84.9288V207.352C84.9288 208.28 84.7583 209.069 84.4174 209.717C84.0765 210.366 83.5959 210.858 82.9757 211.195C82.3554 211.531 81.6239 211.699 80.7811 211.699C79.9856 211.699 79.2778 211.554 78.6575 211.266C78.0372 210.972 77.5495 210.555 77.1944 210.016C76.8393 209.476 76.6618 208.834 76.6618 208.091H78.3947C78.3947 208.503 78.4965 208.863 78.7001 209.17C78.9084 209.473 79.1925 209.71 79.5524 209.881C79.9122 210.051 80.3218 210.136 80.7811 210.136C81.2877 210.136 81.7186 210.03 82.0737 209.817C82.4288 209.604 82.6987 209.291 82.8833 208.879C83.0727 208.463 83.1674 207.954 83.1674 207.352V196.955ZM89.0552 211.5H87.2086L92.5495 196.955H94.3677L99.7086 211.5H97.862L93.5154 199.256H93.4018L89.0552 211.5ZM89.737 205.818H97.1802V207.381H89.737V205.818ZM113.508 196.955V211.5H111.804L103.878 200.08H103.736V211.5H101.974V196.955H103.679L111.633 208.403H111.775V196.955H113.508ZM117.033 211.5V196.955H125.811V198.517H118.794V203.432H125.357V204.994H118.794V209.938H125.925V211.5H117.033ZM139.1 211.5H134.611V196.955H139.298C140.709 196.955 141.917 197.246 142.921 197.828C143.924 198.406 144.694 199.237 145.229 200.321C145.764 201.401 146.031 202.693 146.031 204.199C146.031 205.714 145.762 207.018 145.222 208.112C144.682 209.201 143.896 210.039 142.864 210.626C141.832 211.209 140.577 211.5 139.1 211.5ZM136.372 209.938H138.986C140.189 209.938 141.185 209.705 141.976 209.241C142.767 208.777 143.356 208.117 143.744 207.26C144.133 206.403 144.327 205.383 144.327 204.199C144.327 203.025 144.135 202.014 143.752 201.166C143.368 200.314 142.795 199.661 142.033 199.206C141.271 198.747 140.321 198.517 139.185 198.517H136.372V209.938ZM161.259 204.227C161.259 205.761 160.982 207.087 160.428 208.205C159.874 209.322 159.114 210.184 158.148 210.79C157.182 211.396 156.079 211.699 154.838 211.699C153.598 211.699 152.494 211.396 151.529 210.79C150.563 210.184 149.803 209.322 149.249 208.205C148.695 207.087 148.418 205.761 148.418 204.227C148.418 202.693 148.695 201.367 149.249 200.25C149.803 199.133 150.563 198.271 151.529 197.665C152.494 197.059 153.598 196.756 154.838 196.756C156.079 196.756 157.182 197.059 158.148 197.665C159.114 198.271 159.874 199.133 160.428 200.25C160.982 201.367 161.259 202.693 161.259 204.227ZM159.554 204.227C159.554 202.968 159.343 201.905 158.922 201.038C158.505 200.172 157.94 199.516 157.225 199.071C156.514 198.626 155.719 198.403 154.838 198.403C153.958 198.403 153.16 198.626 152.445 199.071C151.735 199.516 151.169 200.172 150.747 201.038C150.331 201.905 150.122 202.968 150.122 204.227C150.122 205.487 150.331 206.55 150.747 207.416C151.169 208.283 151.735 208.938 152.445 209.384C153.16 209.829 153.958 210.051 154.838 210.051C155.719 210.051 156.514 209.829 157.225 209.384C157.94 208.938 158.505 208.283 158.922 207.416C159.343 206.55 159.554 205.487 159.554 204.227ZM164.22 211.5V196.955H172.999V198.517H165.982V203.432H172.544V204.994H165.982V209.938H173.112V211.5H164.22Z" fill="white"/>
<path d="M83.2665 226.625H82.2757C82.2171 226.34 82.1146 226.09 81.9681 225.874C81.8243 225.658 81.6485 225.477 81.4407 225.331C81.2357 225.181 81.0079 225.07 80.7576 224.995C80.5072 224.92 80.2462 224.883 79.9746 224.883C79.4792 224.883 79.0304 225.008 78.6282 225.259C78.2287 225.509 77.9105 225.878 77.6734 226.365C77.4391 226.853 77.3219 227.451 77.3219 228.159C77.3219 228.868 77.4391 229.465 77.6734 229.953C77.9105 230.44 78.2287 230.809 78.6282 231.059C79.0304 231.31 79.4792 231.435 79.9746 231.435C80.2462 231.435 80.5072 231.398 80.7576 231.323C81.0079 231.249 81.2357 231.138 81.4407 230.992C81.6485 230.842 81.8243 230.66 81.9681 230.444C82.1146 230.226 82.2171 229.975 82.2757 229.693H83.2665C83.1919 230.111 83.0561 230.486 82.859 230.816C82.6619 231.146 82.4169 231.427 82.1239 231.659C81.8309 231.888 81.502 232.062 81.1371 232.182C80.7749 232.302 80.3874 232.362 79.9746 232.362C79.2768 232.362 78.6562 232.191 78.1129 231.85C77.5696 231.51 77.1421 231.025 76.8305 230.396C76.5189 229.768 76.3631 229.022 76.3631 228.159C76.3631 227.296 76.5189 226.55 76.8305 225.922C77.1421 225.293 77.5696 224.809 78.1129 224.468C78.6562 224.127 79.2768 223.956 79.9746 223.956C80.3874 223.956 80.7749 224.016 81.1371 224.136C81.502 224.256 81.8309 224.432 82.1239 224.663C82.4169 224.892 82.6619 225.172 82.859 225.502C83.0561 225.83 83.1919 226.204 83.2665 226.625ZM91.7709 228.159C91.7709 229.022 91.6151 229.768 91.3035 230.396C90.9919 231.025 90.5644 231.51 90.0211 231.85C89.4777 232.191 88.8572 232.362 88.1594 232.362C87.4616 232.362 86.841 232.191 86.2977 231.85C85.7544 231.51 85.3269 231.025 85.0153 230.396C84.7037 229.768 84.5479 229.022 84.5479 228.159C84.5479 227.296 84.7037 226.55 85.0153 225.922C85.3269 225.293 85.7544 224.809 86.2977 224.468C86.841 224.127 87.4616 223.956 88.1594 223.956C88.8572 223.956 89.4777 224.127 90.0211 224.468C90.5644 224.809 90.9919 225.293 91.3035 225.922C91.6151 226.55 91.7709 227.296 91.7709 228.159ZM90.8121 228.159C90.8121 227.451 90.6936 226.853 90.4565 226.365C90.2221 225.878 89.9039 225.509 89.5017 225.259C89.1022 225.008 88.6548 224.883 88.1594 224.883C87.664 224.883 87.2152 225.008 86.8131 225.259C86.4136 225.509 86.0953 225.878 85.8582 226.365C85.6239 226.853 85.5067 227.451 85.5067 228.159C85.5067 228.868 85.6239 229.465 85.8582 229.953C86.0953 230.44 86.4136 230.809 86.8131 231.059C87.2152 231.31 87.664 231.435 88.1594 231.435C88.6548 231.435 89.1022 231.31 89.5017 231.059C89.9039 230.809 90.2221 230.44 90.4565 229.953C90.6936 229.465 90.8121 228.868 90.8121 228.159ZM93.3879 232.25H92.3492L95.3534 224.068H96.3762L99.3804 232.25H98.3417L95.8968 225.363H95.8328L93.3879 232.25ZM93.7714 229.054H97.9582V229.933H93.7714V229.054ZM106.854 226.625H105.863C105.805 226.34 105.702 226.09 105.556 225.874C105.412 225.658 105.236 225.477 105.028 225.331C104.823 225.181 104.596 225.07 104.345 224.995C104.095 224.92 103.834 224.883 103.562 224.883C103.067 224.883 102.618 225.008 102.216 225.259C101.816 225.509 101.498 225.878 101.261 226.365C101.027 226.853 100.91 227.451 100.91 228.159C100.91 228.868 101.027 229.465 101.261 229.953C101.498 230.44 101.816 230.809 102.216 231.059C102.618 231.31 103.067 231.435 103.562 231.435C103.834 231.435 104.095 231.398 104.345 231.323C104.596 231.249 104.823 231.138 105.028 230.992C105.236 230.842 105.412 230.66 105.556 230.444C105.702 230.226 105.805 229.975 105.863 229.693H106.854C106.78 230.111 106.644 230.486 106.447 230.816C106.25 231.146 106.005 231.427 105.712 231.659C105.419 231.888 105.09 232.062 104.725 232.182C104.363 232.302 103.975 232.362 103.562 232.362C102.864 232.362 102.244 232.191 101.701 231.85C101.157 231.51 100.73 231.025 100.418 230.396C100.107 229.768 99.9507 229.022 99.9507 228.159C99.9507 227.296 100.107 226.55 100.418 225.922C100.73 225.293 101.157 224.809 101.701 224.468C102.244 224.127 102.864 223.956 103.562 223.956C103.975 223.956 104.363 224.016 104.725 224.136C105.09 224.256 105.419 224.432 105.712 224.663C106.005 224.892 106.25 225.172 106.447 225.502C106.644 225.83 106.78 226.204 106.854 226.625ZM108.455 232.25V224.068H109.446V227.712H113.808V224.068H114.799V232.25H113.808V228.591H109.446V232.25H108.455ZM124.421 226.114C124.373 225.709 124.179 225.395 123.838 225.171C123.497 224.947 123.079 224.835 122.584 224.835C122.221 224.835 121.904 224.894 121.633 225.011C121.364 225.128 121.153 225.289 121.002 225.494C120.852 225.699 120.778 225.933 120.778 226.194C120.778 226.412 120.83 226.6 120.934 226.757C121.04 226.911 121.176 227.04 121.341 227.144C121.506 227.246 121.679 227.329 121.86 227.396C122.042 227.46 122.208 227.512 122.36 227.552L123.191 227.776C123.404 227.831 123.641 227.909 123.902 228.007C124.166 228.106 124.417 228.24 124.657 228.411C124.899 228.579 125.099 228.794 125.256 229.058C125.413 229.322 125.492 229.645 125.492 230.029C125.492 230.471 125.376 230.87 125.144 231.227C124.915 231.584 124.58 231.868 124.138 232.078C123.698 232.289 123.164 232.394 122.536 232.394C121.95 232.394 121.442 232.299 121.013 232.11C120.587 231.921 120.252 231.657 120.007 231.319C119.764 230.981 119.627 230.588 119.595 230.141H120.618C120.645 230.45 120.748 230.705 120.93 230.908C121.113 231.107 121.345 231.257 121.625 231.355C121.907 231.451 122.211 231.499 122.536 231.499C122.914 231.499 123.253 231.438 123.554 231.315C123.855 231.19 124.094 231.017 124.269 230.796C124.445 230.572 124.533 230.311 124.533 230.013C124.533 229.741 124.457 229.52 124.305 229.35C124.154 229.179 123.954 229.041 123.706 228.934C123.458 228.828 123.191 228.734 122.903 228.654L121.896 228.367C121.257 228.183 120.751 227.921 120.378 227.58C120.005 227.239 119.819 226.793 119.819 226.241C119.819 225.783 119.943 225.384 120.191 225.043C120.441 224.699 120.776 224.433 121.197 224.244C121.621 224.052 122.093 223.956 122.616 223.956C123.143 223.956 123.612 224.051 124.022 224.24C124.432 224.426 124.757 224.682 124.997 225.007C125.239 225.332 125.367 225.701 125.38 226.114H124.421ZM127.121 232.25V224.068H129.885C130.527 224.068 131.052 224.184 131.459 224.416C131.87 224.645 132.173 224.955 132.37 225.347C132.567 225.738 132.666 226.175 132.666 226.657C132.666 227.139 132.567 227.577 132.37 227.971C132.176 228.366 131.875 228.68 131.467 228.914C131.06 229.146 130.538 229.262 129.901 229.262H127.92V228.383H129.869C130.309 228.383 130.662 228.307 130.928 228.155C131.194 228.003 131.388 227.798 131.507 227.54C131.63 227.279 131.691 226.985 131.691 226.657C131.691 226.329 131.63 226.036 131.507 225.778C131.388 225.52 131.193 225.317 130.924 225.171C130.655 225.022 130.298 224.947 129.853 224.947H128.112V232.25H127.121ZM141.165 228.159C141.165 229.022 141.01 229.768 140.698 230.396C140.386 231.025 139.959 231.51 139.416 231.85C138.872 232.191 138.252 232.362 137.554 232.362C136.856 232.362 136.236 232.191 135.692 231.85C135.149 231.51 134.721 231.025 134.41 230.396C134.098 229.768 133.942 229.022 133.942 228.159C133.942 227.296 134.098 226.55 134.41 225.922C134.721 225.293 135.149 224.809 135.692 224.468C136.236 224.127 136.856 223.956 137.554 223.956C138.252 223.956 138.872 224.127 139.416 224.468C139.959 224.809 140.386 225.293 140.698 225.922C141.01 226.55 141.165 227.296 141.165 228.159ZM140.207 228.159C140.207 227.451 140.088 226.853 139.851 226.365C139.617 225.878 139.298 225.509 138.896 225.259C138.497 225.008 138.049 224.883 137.554 224.883C137.059 224.883 136.61 225.008 136.208 225.259C135.808 225.509 135.49 225.878 135.253 226.365C135.018 226.853 134.901 227.451 134.901 228.159C134.901 228.868 135.018 229.465 135.253 229.953C135.49 230.44 135.808 230.809 136.208 231.059C136.61 231.31 137.059 231.435 137.554 231.435C138.049 231.435 138.497 231.31 138.896 231.059C139.298 230.809 139.617 230.44 139.851 229.953C140.088 229.465 140.207 228.868 140.207 228.159ZM142.831 232.25V224.068H145.596C146.235 224.068 146.76 224.177 147.17 224.396C147.58 224.612 147.884 224.908 148.081 225.287C148.278 225.665 148.376 226.095 148.376 226.577C148.376 227.059 148.278 227.487 148.081 227.859C147.884 228.232 147.581 228.525 147.174 228.738C146.766 228.949 146.246 229.054 145.612 229.054H143.375V228.159H145.58C146.017 228.159 146.368 228.095 146.635 227.967C146.904 227.839 147.098 227.658 147.218 227.424C147.34 227.187 147.402 226.905 147.402 226.577C147.402 226.249 147.34 225.963 147.218 225.718C147.095 225.473 146.9 225.284 146.631 225.151C146.362 225.015 146.006 224.947 145.564 224.947H143.822V232.25H142.831ZM146.683 228.575L148.696 232.25H147.545L145.564 228.575H146.683ZM149.58 224.947V224.068H155.716V224.947H153.144V232.25H152.153V224.947H149.58ZM158.236 224.068V232.25H157.245V224.068H158.236ZM160.558 224.068L162.987 230.956H163.083L165.512 224.068H166.551L163.547 232.25H162.524L159.52 224.068H160.558ZM167.825 232.25V224.068H172.763V224.947H168.816V227.712H172.507V228.591H168.816V231.371H172.827V232.25H167.825Z" fill="white"/>
</svg>
